<?xml version="1.0" encoding="UTF-8" standalone="no"?>
<!-- Generator: Adobe Illustrator 16.0.0, SVG Export Plug-In . SVG Version: 6.00 Build 0)  -->

<svg
   xmlns:dc="http://purl.org/dc/elements/1.1/"
   xmlns:cc="http://creativecommons.org/ns#"
   xmlns:rdf="http://www.w3.org/1999/02/22-rdf-syntax-ns#"
   xmlns:svg="http://www.w3.org/2000/svg"
   xmlns="http://www.w3.org/2000/svg"
   xmlns:xlink="http://www.w3.org/1999/xlink"
   xmlns:sodipodi="http://sodipodi.sourceforge.net/DTD/sodipodi-0.dtd"
   xmlns:inkscape="http://www.inkscape.org/namespaces/inkscape"
   version="1.1"
   id="Layer_1"
   x="0px"
   y="0px"
   width="260.08899"
   height="24.101999"
   viewBox="0 0 260.08898 24.102"
   xml:space="preserve"
   sodipodi:docname="logo-header.svg"
   inkscape:version="0.92.4 (5da689c313, 2019-01-14)"><metadata
   id="metadata51"><rdf:RDF><cc:Work
       rdf:about=""><dc:format>image/svg+xml</dc:format><dc:type
         rdf:resource="http://purl.org/dc/dcmitype/StillImage" /><dc:title></dc:title></cc:Work></rdf:RDF></metadata><defs
   id="defs49" /><sodipodi:namedview
   pagecolor="#ffffff"
   bordercolor="#666666"
   borderopacity="1"
   objecttolerance="10"
   gridtolerance="10"
   guidetolerance="10"
   inkscape:pageopacity="0"
   inkscape:pageshadow="2"
   inkscape:window-width="2880"
   inkscape:window-height="1706"
   id="namedview47"
   showgrid="false"
   fit-margin-top="0"
   fit-margin-left="0"
   fit-margin-right="0"
   fit-margin-bottom="0"
   inkscape:zoom="4.1309358"
   inkscape:cx="18.788924"
   inkscape:cy="6.2439911"
   inkscape:window-x="2869"
   inkscape:window-y="-11"
   inkscape:window-maximized="1"
   inkscape:current-layer="Layer_1" />

<g
   id="g14"
   transform="translate(-59.742,-28.848)">
	<defs
   id="defs5">
		<rect
   id="SVGID_1_"
   width="379.57501"
   height="81.797997"
   x="0"
   y="0" />
	</defs>
	<clipPath
   id="SVGID_2_">
		<use
   xlink:href="#SVGID_1_"
   style="overflow:visible"
   id="use7"
   x="0"
   y="0"
   width="100%"
   height="100%" />
	</clipPath>
	<path
   style="fill:#00a9cc"
   d="m 200.439,37.254 v -7.973 h -0.871 -3.137 v 0.021 l -0.025,-0.021 v 2.444 z m -15.536,-7.973 h -3.136 v 23.237 h 4.008 V 36.75 l 3.376,4.628 v -0.002 0.002 l 4.007,5.493 4.119,5.647 h 3.137 v -0.015 l 0.025,0.015 V 50.35 Z m -21.723,0 v 23.237 h 14.814 v -3.651 h -10.805 v -6.274 h 9.76 v -3.619 h -9.76 v -6.041 h 10.632 V 29.282 H 163.18 Z m -3.676,11.22 h -12.198 v 3.42 h 8.157 c -0.732,3.119 -3.452,5.31 -7.878,5.31 -5.473,0 -9.029,-3.618 -9.029,-8.297 0,-4.75 3.627,-8.365 8.784,-8.365 3.207,0 5.926,1.526 7.18,3.684 l 3.452,-1.892 c -2.058,-3.287 -5.994,-5.512 -10.632,-5.512 -7.319,0 -12.791,5.379 -12.791,12.05 0,6.674 5.403,12.051 13.001,12.051 7.147,0 11.954,-4.516 11.954,-10.856 z m -43.091,-11.22 v 3.651 h 6.903 v 19.586 h 4.007 V 32.933 h 6.868 V 29.282 H 116.413 Z M 97.688,47.24 c 1.288,3.452 4.601,5.708 9.411,5.708 5.089,0 8.645,-2.589 8.645,-6.838 0,-4.614 -4.079,-5.81 -8.123,-7.036 -3.556,-1.063 -4.913,-1.827 -4.913,-3.619 0,-1.76 1.499,-2.887 3.832,-2.887 2.718,0 4.254,1.395 5.125,3.252 l 3.381,-1.857 c -1.533,-3.09 -4.496,-5.114 -8.506,-5.114 -4.112,0 -7.842,2.425 -7.842,6.706 0,4.381 3.695,5.708 7.496,6.807 3.624,1.062 5.54,1.76 5.54,3.815 0,1.693 -1.36,3.056 -4.53,3.056 -3.312,0 -5.194,-1.561 -6.065,-3.917 z M 88.16,29.281 96.977,52.518 H 92.656 L 90.947,47.836 H 80.562 l -1.708,4.682 h -4.357 l 8.852,-23.237 z m -6.275,14.972 h 7.74 l -3.872,-10.49 z m -7.85,-14.972 v 3.651 H 63.752 v 6.506 h 9.934 v 3.652 h -9.934 v 9.428 h -4.01 V 29.281 Z"
   clip-path="url(#SVGID_2_)"
   id="path10"
   inkscape:connector-curvature="0" />
	<path
   style="fill:#8a034f"
   d="m 193.158,50.063 v 2.455 H 189.15 V 44.57 Z m 14.664,-20.782 v 7.468 5.677 6.173 3.92 l -0.025,-0.014 v 0.014 h -3.135 L 189.15,31.686 v -2.404 h 3.137 l 4.119,5.646 4.033,5.526 v 10e-4 l 3.35,4.593 v -3.704 -4.548 -7.515 l 0.026,0.021 v -0.021 h 3.136 z m 93.957,17.958 3.448,-1.924 c 0.871,2.357 2.756,3.916 6.065,3.916 3.173,0 4.533,-1.362 4.533,-3.054 0,-2.058 -1.92,-2.755 -5.543,-3.817 -3.801,-1.097 -7.494,-2.424 -7.494,-6.806 0,-4.281 3.73,-6.706 7.843,-6.706 4.007,0 6.97,2.024 8.506,5.114 l -3.384,1.856 c -0.871,-1.856 -2.404,-3.251 -5.122,-3.251 -2.337,0 -3.835,1.127 -3.835,2.886 0,1.792 1.359,2.559 4.916,3.619 4.041,1.229 8.119,2.422 8.119,7.036 0,4.249 -3.553,6.839 -8.645,6.839 -4.807,10e-4 -8.119,-2.256 -9.407,-5.708 m -25.285,-6.341 c 0,-6.738 5.334,-12.05 12.758,-12.05 4.461,0 8.435,2.157 10.492,5.544 l -3.485,1.925 c -1.29,-2.29 -3.939,-3.749 -7.007,-3.749 -5.262,0 -8.75,3.551 -8.75,8.33 0,4.782 3.488,8.333 8.75,8.333 3.067,0 5.75,-1.459 7.007,-3.752 l 3.485,1.893 c -2.023,3.388 -5.996,5.576 -10.492,5.576 -7.424,0 -12.758,-5.311 -12.758,-12.05 M 268.82,29.28 h 4.01 v 23.238 h -4.01 z m -4.892,10e-4 V 52.518 H 259.92 V 35.952 l -7.424,11.685 h -0.488 L 244.584,35.92 v 16.599 h -4.012 V 29.281 h 4.323 l 7.356,11.617 7.388,-11.617 z m -52.331,11.617 c 0,-6.738 5.61,-12.05 12.651,-12.05 7.076,0 12.652,5.312 12.652,12.05 0,6.738 -5.576,12.05 -12.652,12.05 -7.041,0 -12.651,-5.311 -12.651,-12.05 m 21.294,0 c 0,-4.779 -3.764,-8.33 -8.643,-8.33 -4.881,0 -8.645,3.551 -8.645,8.33 0,4.782 3.764,8.333 8.645,8.333 4.879,0 8.643,-3.55 8.643,-8.333"
   clip-path="url(#SVGID_2_)"
   id="path12"
   inkscape:connector-curvature="0" />
</g>
<g
   id="g16"
   transform="translate(-59.742,-28.848)">
</g>
<g
   id="g18"
   transform="translate(-59.742,-28.848)">
</g>
<g
   id="g20"
   transform="translate(-59.742,-28.848)">
</g>
<g
   id="g22"
   transform="translate(-59.742,-28.848)">
</g>
<g
   id="g24"
   transform="translate(-59.742,-28.848)">
</g>
<g
   id="g26"
   transform="translate(-59.742,-28.848)">
</g>
<g
   id="g28"
   transform="translate(-59.742,-28.848)">
</g>
<g
   id="g30"
   transform="translate(-59.742,-28.848)">
</g>
<g
   id="g32"
   transform="translate(-59.742,-28.848)">
</g>
<g
   id="g34"
   transform="translate(-59.742,-28.848)">
</g>
<g
   id="g36"
   transform="translate(-59.742,-28.848)">
</g>
<g
   id="g38"
   transform="translate(-59.742,-28.848)">
</g>
<g
   id="g40"
   transform="translate(-59.742,-28.848)">
</g>
<g
   id="g42"
   transform="translate(-59.742,-28.848)">
</g>
<g
   id="g44"
   transform="translate(-59.742,-28.848)">
</g>
</svg>